<svg width="35" height="35" fill="currentColor" viewBox="0 0 24 24" xmlns="http://www.w3.org/2000/svg">
  <path d="M15.973 16.148a15.6 15.6 0 0 0 .53-3.18.204.204 0 0 0-.057-.154.207.207 0 0 0-.152-.064h-3.33a.209.209 0 0 0-.21.206v2.592a.208.208 0 0 0 .194.205c.939.076 1.866.255 2.766.534a.209.209 0 0 0 .26-.139Z"></path>
  <path d="M15.168 17.685a12.184 12.184 0 0 0-2.184-.426.207.207 0 0 0-.23.201v3.058a.21.21 0 0 0 .317.174c.745-.435 1.36-1.165 1.914-2.13.091-.157.23-.429.313-.595a.2.2 0 0 0-.13-.282Z"></path>
  <path d="M11.03 17.268c-.739.07-1.47.209-2.183.413-.124.036-.176.206-.12.319.085.166.188.38.277.54.61 1.077 1.258 1.757 1.933 2.152a.21.21 0 0 0 .317-.173v-3.06a.197.197 0 0 0-.142-.186.196.196 0 0 0-.082-.005Z"></path>
  <path d="M11.044 12.75h-3.33a.208.208 0 0 0-.197.134.207.207 0 0 0-.013.083c.07 1.082.252 2.211.528 3.18a.21.21 0 0 0 .262.141 12.76 12.76 0 0 1 2.766-.532.208.208 0 0 0 .194-.206v-2.594a.21.21 0 0 0-.13-.191.208.208 0 0 0-.08-.015Z"></path>
  <path d="M12.984 6.743c.74-.069 1.47-.213 2.18-.428a.202.202 0 0 0 .13-.281c-.085-.168-.201-.407-.29-.567-.576-1.031-1.225-1.751-1.933-2.156a.21.21 0 0 0-.317.173v3.058a.208.208 0 0 0 .23.201Z"></path>
  <path d="M12.963 11.248h3.331a.207.207 0 0 0 .21-.215c-.07-1.067-.248-2.24-.524-3.198a.21.21 0 0 0-.18-.147.209.209 0 0 0-.082.009c-.89.269-1.818.489-2.77.562a.206.206 0 0 0-.194.203v2.583a.206.206 0 0 0 .21.203Z"></path>
  <path d="M10.936 3.31c-.723.401-1.367 1.145-1.944 2.173-.09.16-.196.38-.281.547a.202.202 0 0 0 .13.282c.71.22 1.44.363 2.18.43a.208.208 0 0 0 .23-.202V3.483a.21.21 0 0 0-.315-.173Z"></path>
  <path d="M11.06 8.26c-.953-.073-1.881-.293-2.77-.563a.21.21 0 0 0-.263.138c-.276.957-.454 2.13-.523 3.198a.206.206 0 0 0 .21.215h3.33a.205.205 0 0 0 .21-.204V8.462a.206.206 0 0 0-.195-.203Z"></path>
  <path d="M19.424 4.573a10.501 10.501 0 1 0-14.85 14.849 10.5 10.5 0 1 0 14.85-14.849ZM8.278 20.193a10.26 10.26 0 0 1-.585-.921 18.823 18.823 0 0 1-.316-.615.34.34 0 0 0-.483-.149c-.202.113-.469.269-.663.396a6.904 6.904 0 0 1-1.104-1.052c.454-.32.93-.608 1.425-.86.087-.047.13-.1.102-.196a17.568 17.568 0 0 1-.66-3.852.204.204 0 0 0-.202-.196h-2.66a.093.093 0 0 1-.093-.08 4.608 4.608 0 0 1-.04-.67c-.003-.224.01-.448.04-.67a.094.094 0 0 1 .095-.08h2.66c.107 0 .195-.062.2-.17.076-1.3.296-2.586.657-3.836a.204.204 0 0 0-.103-.24 12.217 12.217 0 0 1-1.399-.839 7.96 7.96 0 0 1 1.085-1.068c.191.125.44.267.64.38a.37.37 0 0 0 .516-.16c.088-.182.187-.384.284-.557.18-.322.375-.633.588-.934a8.672 8.672 0 0 1 3.737-.827c1.357 0 2.62.329 3.775.866.204.286.392.583.563.89.121.219.25.487.359.719a.2.2 0 0 0 .2.114.202.202 0 0 0 .077-.024c.253-.136.526-.293.766-.45.396.323.76.684 1.088 1.077-.435.302-.89.573-1.362.812a.204.204 0 0 0-.103.24c.367 1.241.585 2.522.65 3.815a.204.204 0 0 0 .201.193l2.654-.003a.094.094 0 0 1 .094.08 5.47 5.47 0 0 1 0 1.341.093.093 0 0 1-.094.081h-2.656a.203.203 0 0 0-.202.195 17.22 17.22 0 0 1-.65 3.811.209.209 0 0 0 .103.244c.234.121.495.256.72.394.225.138.448.285.663.438a8.098 8.098 0 0 1-1.078 1.075c-.115-.076-.25-.161-.368-.232l-.312-.176c-.179-.1-.37-.025-.459.16-.09.184-.226.45-.322.62a9.94 9.94 0 0 1-.579.916c-1.154.54-2.371.804-3.728.804-1.356 0-2.567-.263-3.721-.803Z"></path>
</svg>